solid exported
	facet normal 1 0 0
		outer loop
			vertex -1.994858003652709 39.399530785078724 44.26304432288785
			vertex -1.994858003652709 9.399530785078724 44.26304432288785
			vertex -1.994858003652709 39.399530785078724 14.26304432288785
		endloop
	endfacet
	facet normal 1 0 0
		outer loop
			vertex -1.994858003652709 9.399530785078724 44.26304432288785
			vertex -1.994858003652709 9.399530785078724 14.26304432288785
			vertex -1.994858003652709 39.399530785078724 14.26304432288785
		endloop
	endfacet
	facet normal -1 0 0
		outer loop
			vertex -31.99485800365271 39.399530785078724 14.26304432288785
			vertex -31.99485800365271 9.399530785078724 14.26304432288785
			vertex -31.99485800365271 39.399530785078724 44.26304432288785
		endloop
	endfacet
	facet normal -1 0 0
		outer loop
			vertex -31.99485800365271 9.399530785078724 14.26304432288785
			vertex -31.99485800365271 9.399530785078724 44.26304432288785
			vertex -31.99485800365271 39.399530785078724 44.26304432288785
		endloop
	endfacet
	facet normal 0 1 0
		outer loop
			vertex -31.99485800365271 39.399530785078724 14.26304432288785
			vertex -31.99485800365271 39.399530785078724 44.26304432288785
			vertex -1.994858003652709 39.399530785078724 14.26304432288785
		endloop
	endfacet
	facet normal 0 1 0
		outer loop
			vertex -31.99485800365271 39.399530785078724 44.26304432288785
			vertex -1.994858003652709 39.399530785078724 44.26304432288785
			vertex -1.994858003652709 39.399530785078724 14.26304432288785
		endloop
	endfacet
	facet normal 0 -1 0
		outer loop
			vertex -31.99485800365271 9.399530785078724 44.26304432288785
			vertex -31.99485800365271 9.399530785078724 14.26304432288785
			vertex -1.994858003652709 9.399530785078724 44.26304432288785
		endloop
	endfacet
	facet normal 0 -1 0
		outer loop
			vertex -31.99485800365271 9.399530785078724 14.26304432288785
			vertex -1.994858003652709 9.399530785078724 14.26304432288785
			vertex -1.994858003652709 9.399530785078724 44.26304432288785
		endloop
	endfacet
	facet normal 0 0 1
		outer loop
			vertex -31.99485800365271 39.399530785078724 44.26304432288785
			vertex -31.99485800365271 9.399530785078724 44.26304432288785
			vertex -1.994858003652709 39.399530785078724 44.26304432288785
		endloop
	endfacet
	facet normal 0 0 1
		outer loop
			vertex -31.99485800365271 9.399530785078724 44.26304432288785
			vertex -1.994858003652709 9.399530785078724 44.26304432288785
			vertex -1.994858003652709 39.399530785078724 44.26304432288785
		endloop
	endfacet
	facet normal 0 0 -1
		outer loop
			vertex -1.994858003652709 39.399530785078724 14.26304432288785
			vertex -1.994858003652709 9.399530785078724 14.26304432288785
			vertex -31.99485800365271 39.399530785078724 14.26304432288785
		endloop
	endfacet
	facet normal 0 0 -1
		outer loop
			vertex -1.994858003652709 9.399530785078724 14.26304432288785
			vertex -31.99485800365271 9.399530785078724 14.26304432288785
			vertex -31.99485800365271 39.399530785078724 14.26304432288785
		endloop
	endfacet
endsolid exported
