solid exported
	facet normal 0.1045284612131262 0 0.994521895584213
		outer loop
			vertex 13.80007173984896 19.14892520501165 13.4629293963891
			vertex 13.80007173984896 -10.85107479498835 13.4629293963891
			vertex 17.958305382427085 19.14892520501165 13.025881438015077
		endloop
	endfacet
	facet normal 0.1045284612131262 0 0.994521895584213
		outer loop
			vertex 13.80007173984896 -10.85107479498835 13.4629293963891
			vertex 17.958305382427085 -10.85107479498835 13.025881438015077
			vertex 17.958305382427085 19.14892520501165 13.025881438015077
		endloop
	endfacet
	facet normal 0.309017136638615 0 0.9510564700708742
		outer loop
			vertex 17.958305382427085 19.14892520501165 13.025881438015077
			vertex 17.958305382427085 -10.85107479498835 13.025881438015077
			vertex 21.934804939922202 19.14892520501165 11.73383775210199
		endloop
	endfacet
	facet normal 0.309017136638615 0 0.9510564700708742
		outer loop
			vertex 17.958305382427085 -10.85107479498835 13.025881438015077
			vertex 21.934804939922202 -10.85107479498835 11.73383775210199
			vertex 21.934804939922202 19.14892520501165 11.73383775210199
		endloop
	endfacet
	facet normal 0.4999999225961044 0 0.8660254484735942
		outer loop
			vertex 21.934804939922202 19.14892520501165 11.73383775210199
			vertex 21.934804939922202 -10.85107479498835 11.73383775210199
			vertex 25.555776619609702 19.14892520501165 9.643269209621522
		endloop
	endfacet
	facet normal 0.4999999225961044 0 0.8660254484735942
		outer loop
			vertex 21.934804939922202 -10.85107479498835 11.73383775210199
			vertex 25.555776619609702 -10.85107479498835 9.643269209621522
			vertex 25.555776619609702 19.14892520501165 9.643269209621522
		endloop
	endfacet
	facet normal 0.6691305147016534 0 0.7431449080059019
		outer loop
			vertex 25.555776619609702 19.14892520501165 9.643269209621522
			vertex 25.555776619609702 -10.85107479498835 9.643269209621522
			vertex 28.662968659099448 19.14892520501165 6.845541624782655
		endloop
	endfacet
	facet normal 0.6691305147016534 0 0.7431449080059019
		outer loop
			vertex 25.555776619609702 -10.85107479498835 9.643269209621522
			vertex 28.662968659099448 -10.85107479498835 6.845541624782655
			vertex 28.662968659099448 19.14892520501165 6.845541624782655
		endloop
	endfacet
	facet normal 0.8090169491120055 0 0.587785314591563
		outer loop
			vertex 28.662968659099448 19.14892520501165 6.845541624782655
			vertex 28.662968659099448 -10.85107479498835 6.845541624782655
			vertex 31.12058069675814 19.14892520501165 3.4629293963891
		endloop
	endfacet
	facet normal 0.8090169491120055 0 0.587785314591563
		outer loop
			vertex 28.662968659099448 -10.85107479498835 6.845541624782655
			vertex 31.12058069675814 -10.85107479498835 3.4629293963891
			vertex 31.12058069675814 19.14892520501165 3.4629293963891
		endloop
	endfacet
	facet normal 0.9135456026793977 0 0.4067363173176653
		outer loop
			vertex 31.12058069675814 19.14892520501165 3.4629293963891
			vertex 31.12058069675814 -10.85107479498835 3.4629293963891
			vertex 32.82120134800326 19.14892520501165 -0.356730790378478
		endloop
	endfacet
	facet normal 0.9135456026793977 0 0.4067363173176653
		outer loop
			vertex 31.12058069675814 -10.85107479498835 3.4629293963891
			vertex 32.82120134800326 -10.85107479498835 -0.356730790378478
			vertex 32.82120134800326 19.14892520501165 -0.356730790378478
		endloop
	endfacet
	facet normal 0.9781475567450298 0 0.2079118977685713
		outer loop
			vertex 32.82120134800326 19.14892520501165 -0.356730790378478
			vertex 32.82120134800326 -10.85107479498835 -0.356730790378478
			vertex 33.690509819682944 19.14892520501165 -4.446501345874694
		endloop
	endfacet
	facet normal 0.9781475567450298 0 0.2079118977685713
		outer loop
			vertex 32.82120134800326 -10.85107479498835 -0.356730790378478
			vertex 33.690509819682944 -10.85107479498835 -4.446501345874694
			vertex 33.690509819682944 19.14892520501165 -4.446501345874694
		endloop
	endfacet
	facet normal 1 0 0
		outer loop
			vertex 33.690509819682944 19.14892520501165 -4.446501345874694
			vertex 33.690509819682944 -10.85107479498835 -4.446501345874694
			vertex 33.690509819682944 19.14892520501165 -8.627639861347106
		endloop
	endfacet
	facet normal 1 0 0
		outer loop
			vertex 33.690509819682944 -10.85107479498835 -4.446501345874694
			vertex 33.690509819682944 -10.85107479498835 -8.627639861347106
			vertex 33.690509819682944 19.14892520501165 -8.627639861347106
		endloop
	endfacet
	facet normal 0.9781475567450298 0 -0.2079118977685713
		outer loop
			vertex 33.690509819682944 19.14892520501165 -8.627639861347106
			vertex 33.690509819682944 -10.85107479498835 -8.627639861347106
			vertex 32.82120134800326 19.14892520501165 -12.717410416843322
		endloop
	endfacet
	facet normal 0.9781475567450298 0 -0.2079118977685713
		outer loop
			vertex 33.690509819682944 -10.85107479498835 -8.627639861347106
			vertex 32.82120134800326 -10.85107479498835 -12.717410416843322
			vertex 32.82120134800326 19.14892520501165 -12.717410416843322
		endloop
	endfacet
	facet normal 0.9135456026793977 0 -0.4067363173176653
		outer loop
			vertex 32.82120134800326 19.14892520501165 -12.717410416843322
			vertex 32.82120134800326 -10.85107479498835 -12.717410416843322
			vertex 31.12058069675814 19.14892520501165 -16.5370706036109
		endloop
	endfacet
	facet normal 0.9135456026793977 0 -0.4067363173176653
		outer loop
			vertex 32.82120134800326 -10.85107479498835 -12.717410416843322
			vertex 31.12058069675814 -10.85107479498835 -16.5370706036109
			vertex 31.12058069675814 19.14892520501165 -16.5370706036109
		endloop
	endfacet
	facet normal 0.8090169491120055 0 -0.587785314591563
		outer loop
			vertex 31.12058069675814 19.14892520501165 -16.5370706036109
			vertex 31.12058069675814 -10.85107479498835 -16.5370706036109
			vertex 28.662968659099448 19.14892520501165 -19.919682832004455
		endloop
	endfacet
	facet normal 0.8090169491120055 0 -0.587785314591563
		outer loop
			vertex 31.12058069675814 -10.85107479498835 -16.5370706036109
			vertex 28.662968659099448 -10.85107479498835 -19.919682832004455
			vertex 28.662968659099448 19.14892520501165 -19.919682832004455
		endloop
	endfacet
	facet normal 0.6691305147016534 0 -0.7431449080059019
		outer loop
			vertex 28.662968659099448 19.14892520501165 -19.919682832004455
			vertex 28.662968659099448 -10.85107479498835 -19.919682832004455
			vertex 25.555776619609702 19.14892520501165 -22.71741041684332
		endloop
	endfacet
	facet normal 0.6691305147016534 0 -0.7431449080059019
		outer loop
			vertex 28.662968659099448 -10.85107479498835 -19.919682832004455
			vertex 25.555776619609702 -10.85107479498835 -22.71741041684332
			vertex 25.555776619609702 19.14892520501165 -22.71741041684332
		endloop
	endfacet
	facet normal 0.4999999225961044 0 -0.8660254484735942
		outer loop
			vertex 25.555776619609702 19.14892520501165 -22.71741041684332
			vertex 25.555776619609702 -10.85107479498835 -22.71741041684332
			vertex 21.934804939922202 19.14892520501165 -24.80797895932379
		endloop
	endfacet
	facet normal 0.4999999225961044 0 -0.8660254484735942
		outer loop
			vertex 25.555776619609702 -10.85107479498835 -22.71741041684332
			vertex 21.934804939922202 -10.85107479498835 -24.80797895932379
			vertex 21.934804939922202 19.14892520501165 -24.80797895932379
		endloop
	endfacet
	facet normal 0.309017136638615 0 -0.9510564700708742
		outer loop
			vertex 21.934804939922202 19.14892520501165 -24.80797895932379
			vertex 21.934804939922202 -10.85107479498835 -24.80797895932379
			vertex 17.958305382427085 19.14892520501165 -26.100022645236876
		endloop
	endfacet
	facet normal 0.309017136638615 0 -0.9510564700708742
		outer loop
			vertex 21.934804939922202 -10.85107479498835 -24.80797895932379
			vertex 17.958305382427085 -10.85107479498835 -26.100022645236876
			vertex 17.958305382427085 19.14892520501165 -26.100022645236876
		endloop
	endfacet
	facet normal 0.10452846121312627 0 -0.9945218955842129
		outer loop
			vertex 17.958305382427085 19.14892520501165 -26.100022645236876
			vertex 17.958305382427085 -10.85107479498835 -26.100022645236876
			vertex 13.800071739848962 19.14892520501165 -26.5370706036109
		endloop
	endfacet
	facet normal 0.10452846121312627 0 -0.9945218955842129
		outer loop
			vertex 17.958305382427085 -10.85107479498835 -26.100022645236876
			vertex 13.800071739848962 -10.85107479498835 -26.5370706036109
			vertex 13.800071739848962 19.14892520501165 -26.5370706036109
		endloop
	endfacet
	facet normal -0.10452846121312613 0 -0.994521895584213
		outer loop
			vertex 13.800071739848962 19.14892520501165 -26.5370706036109
			vertex 13.800071739848962 -10.85107479498835 -26.5370706036109
			vertex 9.641838097270835 19.14892520501165 -26.100022645236876
		endloop
	endfacet
	facet normal -0.10452846121312613 0 -0.994521895584213
		outer loop
			vertex 13.800071739848962 -10.85107479498835 -26.5370706036109
			vertex 9.641838097270835 -10.85107479498835 -26.100022645236876
			vertex 9.641838097270835 19.14892520501165 -26.100022645236876
		endloop
	endfacet
	facet normal -0.309017136638615 0 -0.9510564700708742
		outer loop
			vertex 9.641838097270835 19.14892520501165 -26.100022645236876
			vertex 9.641838097270835 -10.85107479498835 -26.100022645236876
			vertex 5.665338539775718 19.14892520501165 -24.80797895932379
		endloop
	endfacet
	facet normal -0.309017136638615 0 -0.9510564700708742
		outer loop
			vertex 9.641838097270835 -10.85107479498835 -26.100022645236876
			vertex 5.665338539775718 -10.85107479498835 -24.80797895932379
			vertex 5.665338539775718 19.14892520501165 -24.80797895932379
		endloop
	endfacet
	facet normal -0.4999999225961044 0 -0.8660254484735942
		outer loop
			vertex 5.665338539775718 19.14892520501165 -24.80797895932379
			vertex 5.665338539775718 -10.85107479498835 -24.80797895932379
			vertex 2.0443668600882177 19.14892520501165 -22.71741041684332
		endloop
	endfacet
	facet normal -0.4999999225961044 0 -0.8660254484735942
		outer loop
			vertex 5.665338539775718 -10.85107479498835 -24.80797895932379
			vertex 2.0443668600882177 -10.85107479498835 -22.71741041684332
			vertex 2.0443668600882177 19.14892520501165 -22.71741041684332
		endloop
	endfacet
	facet normal -0.6691305147016534 0 -0.7431449080059019
		outer loop
			vertex 2.0443668600882177 19.14892520501165 -22.71741041684332
			vertex 2.0443668600882177 -10.85107479498835 -22.71741041684332
			vertex -1.0628251794015284 19.14892520501165 -19.919682832004455
		endloop
	endfacet
	facet normal -0.6691305147016534 0 -0.7431449080059019
		outer loop
			vertex 2.0443668600882177 -10.85107479498835 -22.71741041684332
			vertex -1.0628251794015284 -10.85107479498835 -19.919682832004455
			vertex -1.0628251794015284 19.14892520501165 -19.919682832004455
		endloop
	endfacet
	facet normal -0.8090169491120055 0 -0.587785314591563
		outer loop
			vertex -1.0628251794015284 19.14892520501165 -19.919682832004455
			vertex -1.0628251794015284 -10.85107479498835 -19.919682832004455
			vertex -3.52043721706022 19.14892520501165 -16.5370706036109
		endloop
	endfacet
	facet normal -0.8090169491120055 0 -0.587785314591563
		outer loop
			vertex -1.0628251794015284 -10.85107479498835 -19.919682832004455
			vertex -3.52043721706022 -10.85107479498835 -16.5370706036109
			vertex -3.52043721706022 19.14892520501165 -16.5370706036109
		endloop
	endfacet
	facet normal -0.9135456026793977 0 -0.4067363173176653
		outer loop
			vertex -3.52043721706022 19.14892520501165 -16.5370706036109
			vertex -3.52043721706022 -10.85107479498835 -16.5370706036109
			vertex -5.221057868305337 19.14892520501165 -12.717410416843322
		endloop
	endfacet
	facet normal -0.9135456026793977 0 -0.4067363173176653
		outer loop
			vertex -3.52043721706022 -10.85107479498835 -16.5370706036109
			vertex -5.221057868305337 -10.85107479498835 -12.717410416843322
			vertex -5.221057868305337 19.14892520501165 -12.717410416843322
		endloop
	endfacet
	facet normal -0.9781475567450298 0 -0.2079118977685713
		outer loop
			vertex -5.221057868305337 19.14892520501165 -12.717410416843322
			vertex -5.221057868305337 -10.85107479498835 -12.717410416843322
			vertex -6.0903663399850245 19.14892520501165 -8.627639861347106
		endloop
	endfacet
	facet normal -0.9781475567450298 0 -0.2079118977685713
		outer loop
			vertex -5.221057868305337 -10.85107479498835 -12.717410416843322
			vertex -6.0903663399850245 -10.85107479498835 -8.627639861347106
			vertex -6.0903663399850245 19.14892520501165 -8.627639861347106
		endloop
	endfacet
	facet normal -1 0 0
		outer loop
			vertex -6.0903663399850245 19.14892520501165 -8.627639861347106
			vertex -6.0903663399850245 -10.85107479498835 -8.627639861347106
			vertex -6.0903663399850245 19.14892520501165 -4.446501345874694
		endloop
	endfacet
	facet normal -1 0 0
		outer loop
			vertex -6.0903663399850245 -10.85107479498835 -8.627639861347106
			vertex -6.0903663399850245 -10.85107479498835 -4.446501345874694
			vertex -6.0903663399850245 19.14892520501165 -4.446501345874694
		endloop
	endfacet
	facet normal -0.9781475567450298 0 0.2079118977685713
		outer loop
			vertex -6.0903663399850245 19.14892520501165 -4.446501345874694
			vertex -6.0903663399850245 -10.85107479498835 -4.446501345874694
			vertex -5.221057868305337 19.14892520501165 -0.356730790378478
		endloop
	endfacet
	facet normal -0.9781475567450298 0 0.2079118977685713
		outer loop
			vertex -6.0903663399850245 -10.85107479498835 -4.446501345874694
			vertex -5.221057868305337 -10.85107479498835 -0.356730790378478
			vertex -5.221057868305337 19.14892520501165 -0.356730790378478
		endloop
	endfacet
	facet normal -0.9135456026793977 0 0.4067363173176653
		outer loop
			vertex -5.221057868305337 19.14892520501165 -0.356730790378478
			vertex -5.221057868305337 -10.85107479498835 -0.356730790378478
			vertex -3.52043721706022 19.14892520501165 3.4629293963891
		endloop
	endfacet
	facet normal -0.9135456026793977 0 0.4067363173176653
		outer loop
			vertex -5.221057868305337 -10.85107479498835 -0.356730790378478
			vertex -3.52043721706022 -10.85107479498835 3.4629293963891
			vertex -3.52043721706022 19.14892520501165 3.4629293963891
		endloop
	endfacet
	facet normal -0.8090169491120055 0 0.587785314591563
		outer loop
			vertex -3.52043721706022 19.14892520501165 3.4629293963891
			vertex -3.52043721706022 -10.85107479498835 3.4629293963891
			vertex -1.0628251794015284 19.14892520501165 6.845541624782655
		endloop
	endfacet
	facet normal -0.8090169491120055 0 0.587785314591563
		outer loop
			vertex -3.52043721706022 -10.85107479498835 3.4629293963891
			vertex -1.0628251794015284 -10.85107479498835 6.845541624782655
			vertex -1.0628251794015284 19.14892520501165 6.845541624782655
		endloop
	endfacet
	facet normal -0.6691305147016534 0 0.7431449080059019
		outer loop
			vertex -1.0628251794015284 19.14892520501165 6.845541624782655
			vertex -1.0628251794015284 -10.85107479498835 6.845541624782655
			vertex 2.0443668600882177 19.14892520501165 9.643269209621522
		endloop
	endfacet
	facet normal -0.6691305147016534 0 0.7431449080059019
		outer loop
			vertex -1.0628251794015284 -10.85107479498835 6.845541624782655
			vertex 2.0443668600882177 -10.85107479498835 9.643269209621522
			vertex 2.0443668600882177 19.14892520501165 9.643269209621522
		endloop
	endfacet
	facet normal -0.4999999225961044 0 0.8660254484735942
		outer loop
			vertex 2.0443668600882177 19.14892520501165 9.643269209621522
			vertex 2.0443668600882177 -10.85107479498835 9.643269209621522
			vertex 5.665338539775718 19.14892520501165 11.73383775210199
		endloop
	endfacet
	facet normal -0.4999999225961044 0 0.8660254484735942
		outer loop
			vertex 2.0443668600882177 -10.85107479498835 9.643269209621522
			vertex 5.665338539775718 -10.85107479498835 11.73383775210199
			vertex 5.665338539775718 19.14892520501165 11.73383775210199
		endloop
	endfacet
	facet normal -0.309017136638615 0 0.9510564700708742
		outer loop
			vertex 5.665338539775718 19.14892520501165 11.73383775210199
			vertex 5.665338539775718 -10.85107479498835 11.73383775210199
			vertex 9.641838097270835 19.14892520501165 13.025881438015077
		endloop
	endfacet
	facet normal -0.309017136638615 0 0.9510564700708742
		outer loop
			vertex 5.665338539775718 -10.85107479498835 11.73383775210199
			vertex 9.641838097270835 -10.85107479498835 13.025881438015077
			vertex 9.641838097270835 19.14892520501165 13.025881438015077
		endloop
	endfacet
	facet normal -0.10452846121312634 0 0.994521895584213
		outer loop
			vertex 9.641838097270835 19.14892520501165 13.025881438015077
			vertex 9.641838097270835 -10.85107479498835 13.025881438015077
			vertex 13.800071739848955 19.14892520501165 13.4629293963891
		endloop
	endfacet
	facet normal -0.10452846121312634 0 0.994521895584213
		outer loop
			vertex 9.641838097270835 -10.85107479498835 13.025881438015077
			vertex 13.800071739848955 -10.85107479498835 13.4629293963891
			vertex 13.800071739848955 19.14892520501165 13.4629293963891
		endloop
	endfacet
	facet normal 0 1 0
		outer loop
			vertex 13.80007173984896 19.14892520501165 13.4629293963891
			vertex 17.958305382427085 19.14892520501165 13.025881438015077
			vertex 13.80007173984896 19.14892520501165 -6.5370706036109
		endloop
	endfacet
	facet normal 0 1 0
		outer loop
			vertex 17.958305382427085 19.14892520501165 13.025881438015077
			vertex 21.934804939922202 19.14892520501165 11.73383775210199
			vertex 13.80007173984896 19.14892520501165 -6.5370706036109
		endloop
	endfacet
	facet normal 0 1 0
		outer loop
			vertex 21.934804939922202 19.14892520501165 11.73383775210199
			vertex 25.555776619609702 19.14892520501165 9.643269209621522
			vertex 13.80007173984896 19.14892520501165 -6.5370706036109
		endloop
	endfacet
	facet normal 0 1 0
		outer loop
			vertex 25.555776619609702 19.14892520501165 9.643269209621522
			vertex 28.662968659099448 19.14892520501165 6.845541624782655
			vertex 13.80007173984896 19.14892520501165 -6.5370706036109
		endloop
	endfacet
	facet normal 0 1 0
		outer loop
			vertex 28.662968659099448 19.14892520501165 6.845541624782655
			vertex 31.12058069675814 19.14892520501165 3.4629293963891
			vertex 13.80007173984896 19.14892520501165 -6.5370706036109
		endloop
	endfacet
	facet normal 0 1 0
		outer loop
			vertex 31.12058069675814 19.14892520501165 3.4629293963891
			vertex 32.82120134800326 19.14892520501165 -0.356730790378478
			vertex 13.80007173984896 19.14892520501165 -6.5370706036109
		endloop
	endfacet
	facet normal 0 1 0
		outer loop
			vertex 32.82120134800326 19.14892520501165 -0.356730790378478
			vertex 33.690509819682944 19.14892520501165 -4.446501345874694
			vertex 13.80007173984896 19.14892520501165 -6.5370706036109
		endloop
	endfacet
	facet normal 0 1 0
		outer loop
			vertex 33.690509819682944 19.14892520501165 -4.446501345874694
			vertex 33.690509819682944 19.14892520501165 -8.627639861347106
			vertex 13.80007173984896 19.14892520501165 -6.5370706036109
		endloop
	endfacet
	facet normal 0 1 0
		outer loop
			vertex 33.690509819682944 19.14892520501165 -8.627639861347106
			vertex 32.82120134800326 19.14892520501165 -12.717410416843322
			vertex 13.80007173984896 19.14892520501165 -6.5370706036109
		endloop
	endfacet
	facet normal 0 1 0
		outer loop
			vertex 32.82120134800326 19.14892520501165 -12.717410416843322
			vertex 31.12058069675814 19.14892520501165 -16.5370706036109
			vertex 13.80007173984896 19.14892520501165 -6.5370706036109
		endloop
	endfacet
	facet normal 0 1 0
		outer loop
			vertex 31.12058069675814 19.14892520501165 -16.5370706036109
			vertex 28.662968659099448 19.14892520501165 -19.919682832004455
			vertex 13.80007173984896 19.14892520501165 -6.5370706036109
		endloop
	endfacet
	facet normal 0 1 0
		outer loop
			vertex 28.662968659099448 19.14892520501165 -19.919682832004455
			vertex 25.555776619609702 19.14892520501165 -22.71741041684332
			vertex 13.80007173984896 19.14892520501165 -6.5370706036109
		endloop
	endfacet
	facet normal 0 1 0
		outer loop
			vertex 25.555776619609702 19.14892520501165 -22.71741041684332
			vertex 21.934804939922202 19.14892520501165 -24.80797895932379
			vertex 13.80007173984896 19.14892520501165 -6.5370706036109
		endloop
	endfacet
	facet normal 0 1 0
		outer loop
			vertex 21.934804939922202 19.14892520501165 -24.80797895932379
			vertex 17.958305382427085 19.14892520501165 -26.100022645236876
			vertex 13.80007173984896 19.14892520501165 -6.5370706036109
		endloop
	endfacet
	facet normal 0 1 0
		outer loop
			vertex 17.958305382427085 19.14892520501165 -26.100022645236876
			vertex 13.800071739848962 19.14892520501165 -26.5370706036109
			vertex 13.80007173984896 19.14892520501165 -6.5370706036109
		endloop
	endfacet
	facet normal 0 1 0
		outer loop
			vertex 13.800071739848962 19.14892520501165 -26.5370706036109
			vertex 9.641838097270835 19.14892520501165 -26.100022645236876
			vertex 13.80007173984896 19.14892520501165 -6.5370706036109
		endloop
	endfacet
	facet normal 0 1 0
		outer loop
			vertex 9.641838097270835 19.14892520501165 -26.100022645236876
			vertex 5.665338539775718 19.14892520501165 -24.80797895932379
			vertex 13.80007173984896 19.14892520501165 -6.5370706036109
		endloop
	endfacet
	facet normal 0 1 0
		outer loop
			vertex 5.665338539775718 19.14892520501165 -24.80797895932379
			vertex 2.0443668600882177 19.14892520501165 -22.71741041684332
			vertex 13.80007173984896 19.14892520501165 -6.5370706036109
		endloop
	endfacet
	facet normal 0 1 0
		outer loop
			vertex 2.0443668600882177 19.14892520501165 -22.71741041684332
			vertex -1.0628251794015284 19.14892520501165 -19.919682832004455
			vertex 13.80007173984896 19.14892520501165 -6.5370706036109
		endloop
	endfacet
	facet normal 0 1 0
		outer loop
			vertex -1.0628251794015284 19.14892520501165 -19.919682832004455
			vertex -3.52043721706022 19.14892520501165 -16.5370706036109
			vertex 13.80007173984896 19.14892520501165 -6.5370706036109
		endloop
	endfacet
	facet normal 0 1 0
		outer loop
			vertex -3.52043721706022 19.14892520501165 -16.5370706036109
			vertex -5.221057868305337 19.14892520501165 -12.717410416843322
			vertex 13.80007173984896 19.14892520501165 -6.5370706036109
		endloop
	endfacet
	facet normal 0 1 0
		outer loop
			vertex -5.221057868305337 19.14892520501165 -12.717410416843322
			vertex -6.0903663399850245 19.14892520501165 -8.627639861347106
			vertex 13.80007173984896 19.14892520501165 -6.5370706036109
		endloop
	endfacet
	facet normal 0 1 0
		outer loop
			vertex -6.0903663399850245 19.14892520501165 -8.627639861347106
			vertex -6.0903663399850245 19.14892520501165 -4.446501345874694
			vertex 13.80007173984896 19.14892520501165 -6.5370706036109
		endloop
	endfacet
	facet normal 0 1 0
		outer loop
			vertex -6.0903663399850245 19.14892520501165 -4.446501345874694
			vertex -5.221057868305337 19.14892520501165 -0.356730790378478
			vertex 13.80007173984896 19.14892520501165 -6.5370706036109
		endloop
	endfacet
	facet normal 0 1 0
		outer loop
			vertex -5.221057868305337 19.14892520501165 -0.356730790378478
			vertex -3.52043721706022 19.14892520501165 3.4629293963891
			vertex 13.80007173984896 19.14892520501165 -6.5370706036109
		endloop
	endfacet
	facet normal 0 1 0
		outer loop
			vertex -3.52043721706022 19.14892520501165 3.4629293963891
			vertex -1.0628251794015284 19.14892520501165 6.845541624782655
			vertex 13.80007173984896 19.14892520501165 -6.5370706036109
		endloop
	endfacet
	facet normal 0 1 0
		outer loop
			vertex -1.0628251794015284 19.14892520501165 6.845541624782655
			vertex 2.0443668600882177 19.14892520501165 9.643269209621522
			vertex 13.80007173984896 19.14892520501165 -6.5370706036109
		endloop
	endfacet
	facet normal 0 1 0
		outer loop
			vertex 2.0443668600882177 19.14892520501165 9.643269209621522
			vertex 5.665338539775718 19.14892520501165 11.73383775210199
			vertex 13.80007173984896 19.14892520501165 -6.5370706036109
		endloop
	endfacet
	facet normal 0 1 0
		outer loop
			vertex 5.665338539775718 19.14892520501165 11.73383775210199
			vertex 9.641838097270835 19.14892520501165 13.025881438015077
			vertex 13.80007173984896 19.14892520501165 -6.5370706036109
		endloop
	endfacet
	facet normal 0 1 0
		outer loop
			vertex 9.641838097270835 19.14892520501165 13.025881438015077
			vertex 13.800071739848955 19.14892520501165 13.4629293963891
			vertex 13.80007173984896 19.14892520501165 -6.5370706036109
		endloop
	endfacet
	facet normal 0 -1 0
		outer loop
			vertex 17.958305382427085 -10.85107479498835 13.025881438015077
			vertex 13.80007173984896 -10.85107479498835 13.4629293963891
			vertex 13.80007173984896 -10.85107479498835 -6.5370706036109
		endloop
	endfacet
	facet normal 0 -1 0
		outer loop
			vertex 21.934804939922202 -10.85107479498835 11.73383775210199
			vertex 17.958305382427085 -10.85107479498835 13.025881438015077
			vertex 13.80007173984896 -10.85107479498835 -6.5370706036109
		endloop
	endfacet
	facet normal 0 -1 0
		outer loop
			vertex 25.555776619609702 -10.85107479498835 9.643269209621522
			vertex 21.934804939922202 -10.85107479498835 11.73383775210199
			vertex 13.80007173984896 -10.85107479498835 -6.5370706036109
		endloop
	endfacet
	facet normal 0 -1 0
		outer loop
			vertex 28.662968659099448 -10.85107479498835 6.845541624782655
			vertex 25.555776619609702 -10.85107479498835 9.643269209621522
			vertex 13.80007173984896 -10.85107479498835 -6.5370706036109
		endloop
	endfacet
	facet normal 0 -1 0
		outer loop
			vertex 31.12058069675814 -10.85107479498835 3.4629293963891
			vertex 28.662968659099448 -10.85107479498835 6.845541624782655
			vertex 13.80007173984896 -10.85107479498835 -6.5370706036109
		endloop
	endfacet
	facet normal 0 -1 0
		outer loop
			vertex 32.82120134800326 -10.85107479498835 -0.356730790378478
			vertex 31.12058069675814 -10.85107479498835 3.4629293963891
			vertex 13.80007173984896 -10.85107479498835 -6.5370706036109
		endloop
	endfacet
	facet normal 0 -1 0
		outer loop
			vertex 33.690509819682944 -10.85107479498835 -4.446501345874694
			vertex 32.82120134800326 -10.85107479498835 -0.356730790378478
			vertex 13.80007173984896 -10.85107479498835 -6.5370706036109
		endloop
	endfacet
	facet normal 0 -1 0
		outer loop
			vertex 33.690509819682944 -10.85107479498835 -8.627639861347106
			vertex 33.690509819682944 -10.85107479498835 -4.446501345874694
			vertex 13.80007173984896 -10.85107479498835 -6.5370706036109
		endloop
	endfacet
	facet normal 0 -1 0
		outer loop
			vertex 32.82120134800326 -10.85107479498835 -12.717410416843322
			vertex 33.690509819682944 -10.85107479498835 -8.627639861347106
			vertex 13.80007173984896 -10.85107479498835 -6.5370706036109
		endloop
	endfacet
	facet normal 0 -1 0
		outer loop
			vertex 31.12058069675814 -10.85107479498835 -16.5370706036109
			vertex 32.82120134800326 -10.85107479498835 -12.717410416843322
			vertex 13.80007173984896 -10.85107479498835 -6.5370706036109
		endloop
	endfacet
	facet normal 0 -1 0
		outer loop
			vertex 28.662968659099448 -10.85107479498835 -19.919682832004455
			vertex 31.12058069675814 -10.85107479498835 -16.5370706036109
			vertex 13.80007173984896 -10.85107479498835 -6.5370706036109
		endloop
	endfacet
	facet normal 0 -1 0
		outer loop
			vertex 25.555776619609702 -10.85107479498835 -22.71741041684332
			vertex 28.662968659099448 -10.85107479498835 -19.919682832004455
			vertex 13.80007173984896 -10.85107479498835 -6.5370706036109
		endloop
	endfacet
	facet normal 0 -1 0
		outer loop
			vertex 21.934804939922202 -10.85107479498835 -24.80797895932379
			vertex 25.555776619609702 -10.85107479498835 -22.71741041684332
			vertex 13.80007173984896 -10.85107479498835 -6.5370706036109
		endloop
	endfacet
	facet normal 0 -1 0
		outer loop
			vertex 17.958305382427085 -10.85107479498835 -26.100022645236876
			vertex 21.934804939922202 -10.85107479498835 -24.80797895932379
			vertex 13.80007173984896 -10.85107479498835 -6.5370706036109
		endloop
	endfacet
	facet normal 0 -1 0
		outer loop
			vertex 13.800071739848962 -10.85107479498835 -26.5370706036109
			vertex 17.958305382427085 -10.85107479498835 -26.100022645236876
			vertex 13.80007173984896 -10.85107479498835 -6.5370706036109
		endloop
	endfacet
	facet normal 0 -1 0
		outer loop
			vertex 9.641838097270835 -10.85107479498835 -26.100022645236876
			vertex 13.800071739848962 -10.85107479498835 -26.5370706036109
			vertex 13.80007173984896 -10.85107479498835 -6.5370706036109
		endloop
	endfacet
	facet normal 0 -1 0
		outer loop
			vertex 5.665338539775718 -10.85107479498835 -24.80797895932379
			vertex 9.641838097270835 -10.85107479498835 -26.100022645236876
			vertex 13.80007173984896 -10.85107479498835 -6.5370706036109
		endloop
	endfacet
	facet normal 0 -1 0
		outer loop
			vertex 2.0443668600882177 -10.85107479498835 -22.71741041684332
			vertex 5.665338539775718 -10.85107479498835 -24.80797895932379
			vertex 13.80007173984896 -10.85107479498835 -6.5370706036109
		endloop
	endfacet
	facet normal 0 -1 0
		outer loop
			vertex -1.0628251794015284 -10.85107479498835 -19.919682832004455
			vertex 2.0443668600882177 -10.85107479498835 -22.71741041684332
			vertex 13.80007173984896 -10.85107479498835 -6.5370706036109
		endloop
	endfacet
	facet normal 0 -1 0
		outer loop
			vertex -3.52043721706022 -10.85107479498835 -16.5370706036109
			vertex -1.0628251794015284 -10.85107479498835 -19.919682832004455
			vertex 13.80007173984896 -10.85107479498835 -6.5370706036109
		endloop
	endfacet
	facet normal 0 -1 0
		outer loop
			vertex -5.221057868305337 -10.85107479498835 -12.717410416843322
			vertex -3.52043721706022 -10.85107479498835 -16.5370706036109
			vertex 13.80007173984896 -10.85107479498835 -6.5370706036109
		endloop
	endfacet
	facet normal 0 -1 0
		outer loop
			vertex -6.0903663399850245 -10.85107479498835 -8.627639861347106
			vertex -5.221057868305337 -10.85107479498835 -12.717410416843322
			vertex 13.80007173984896 -10.85107479498835 -6.5370706036109
		endloop
	endfacet
	facet normal 0 -1 0
		outer loop
			vertex -6.0903663399850245 -10.85107479498835 -4.446501345874694
			vertex -6.0903663399850245 -10.85107479498835 -8.627639861347106
			vertex 13.80007173984896 -10.85107479498835 -6.5370706036109
		endloop
	endfacet
	facet normal 0 -1 0
		outer loop
			vertex -5.221057868305337 -10.85107479498835 -0.356730790378478
			vertex -6.0903663399850245 -10.85107479498835 -4.446501345874694
			vertex 13.80007173984896 -10.85107479498835 -6.5370706036109
		endloop
	endfacet
	facet normal 0 -1 0
		outer loop
			vertex -3.52043721706022 -10.85107479498835 3.4629293963891
			vertex -5.221057868305337 -10.85107479498835 -0.356730790378478
			vertex 13.80007173984896 -10.85107479498835 -6.5370706036109
		endloop
	endfacet
	facet normal 0 -1 0
		outer loop
			vertex -1.0628251794015284 -10.85107479498835 6.845541624782655
			vertex -3.52043721706022 -10.85107479498835 3.4629293963891
			vertex 13.80007173984896 -10.85107479498835 -6.5370706036109
		endloop
	endfacet
	facet normal 0 -1 0
		outer loop
			vertex 2.0443668600882177 -10.85107479498835 9.643269209621522
			vertex -1.0628251794015284 -10.85107479498835 6.845541624782655
			vertex 13.80007173984896 -10.85107479498835 -6.5370706036109
		endloop
	endfacet
	facet normal 0 -1 0
		outer loop
			vertex 5.665338539775718 -10.85107479498835 11.73383775210199
			vertex 2.0443668600882177 -10.85107479498835 9.643269209621522
			vertex 13.80007173984896 -10.85107479498835 -6.5370706036109
		endloop
	endfacet
	facet normal 0 -1 0
		outer loop
			vertex 9.641838097270835 -10.85107479498835 13.025881438015077
			vertex 5.665338539775718 -10.85107479498835 11.73383775210199
			vertex 13.80007173984896 -10.85107479498835 -6.5370706036109
		endloop
	endfacet
	facet normal 0 -1 0
		outer loop
			vertex 13.800071739848955 -10.85107479498835 13.4629293963891
			vertex 9.641838097270835 -10.85107479498835 13.025881438015077
			vertex 13.80007173984896 -10.85107479498835 -6.5370706036109
		endloop
	endfacet
endsolid exported
